<?xml version="1.0" encoding="UTF-8" standalone="no"?>
<svg
   viewBox="0 0 512 512"
   version="1.1"
   id="svg1"
   sodipodi:docname="file-pdf.svg"
   inkscape:version="1.3.2 (1:1.3.2+202311252150+091e20ef0f)"
   xmlns:inkscape="http://www.inkscape.org/namespaces/inkscape"
   xmlns:sodipodi="http://sodipodi.sourceforge.net/DTD/sodipodi-0.dtd"
   xmlns="http://www.w3.org/2000/svg"
   xmlns:svg="http://www.w3.org/2000/svg">
  <defs
     id="defs1" />
  <sodipodi:namedview
     id="namedview1"
     pagecolor="#ffffff"
     bordercolor="#666666"
     borderopacity="1.0"
     inkscape:showpageshadow="2"
     inkscape:pageopacity="0.0"
     inkscape:pagecheckerboard="0"
     inkscape:deskcolor="#d1d1d1"
     inkscape:zoom="1.5839844"
     inkscape:cx="256.31566"
     inkscape:cy="256"
     inkscape:window-width="960"
     inkscape:window-height="1008"
     inkscape:window-x="960"
     inkscape:window-y="0"
     inkscape:window-maximized="0"
     inkscape:current-layer="svg1" />
  <!--! Font Awesome Free 6.5.2 by @fontawesome - https://fontawesome.com License - https://fontawesome.com/license/free (Icons: CC BY 4.0, Fonts: SIL OFL 1.1, Code: MIT License) Copyright 2024 Fonticons, Inc.-->
  <path
     d="M64 464h48v48H64c-35.3 0-64-28.7-64-64V64C0 28.7 28.7 0 64 0h165.5c17 0 33.3 6.7 45.3 18.7l90.5 90.5c12 12 18.7 28.3 18.7 45.3V304h-48V160h-80c-17.7 0-32-14.3-32-32V48H64c-8.8 0-16 7.2-16 16v384c0 8.8 7.2 16 16 16zm112-112h32c30.9 0 56 25.1 56 56s-25.1 56-56 56h-16v32c0 8.8-7.2 16-16 16s-16-7.2-16-16V368c0-8.8 7.2-16 16-16zm32 80c13.3 0 24-10.7 24-24s-10.7-24-24-24h-16v48h16zm96-80h32c26.5 0 48 21.5 48 48v64c0 26.5-21.5 48-48 48h-32c-8.8 0-16-7.2-16-16V368c0-8.8 7.2-16 16-16zm32 128c8.8 0 16-7.2 16-16v-64c0-8.8-7.2-16-16-16h-16v96h16zm80-112c0-8.8 7.2-16 16-16h48c8.8 0 16 7.2 16 16s-7.2 16-16 16h-32v32h32c8.8 0 16 7.2 16 16s-7.2 16-16 16h-32v48c0 8.8-7.2 16-16 16s-16-7.2-16-16V368z"
     id="path1"
     style="fill:#dd855a;stroke:none;fill-opacity:1" />
</svg>
