<?xml version="1.0" encoding="UTF-8" standalone="no"?>
<svg
   viewBox="0 0 512 512"
   version="1.1"
   id="svg1"
   sodipodi:docname="gitlab.svg"
   inkscape:version="1.3.2 (1:1.3.2+202311252150+091e20ef0f)"
   xmlns:inkscape="http://www.inkscape.org/namespaces/inkscape"
   xmlns:sodipodi="http://sodipodi.sourceforge.net/DTD/sodipodi-0.dtd"
   xmlns="http://www.w3.org/2000/svg"
   xmlns:svg="http://www.w3.org/2000/svg">
  <defs
     id="defs1" />
  <sodipodi:namedview
     id="namedview1"
     pagecolor="#ffffff"
     bordercolor="#666666"
     borderopacity="1.0"
     inkscape:showpageshadow="2"
     inkscape:pageopacity="0.0"
     inkscape:pagecheckerboard="0"
     inkscape:deskcolor="#d1d1d1"
     inkscape:zoom="1.5839844"
     inkscape:cx="256"
     inkscape:cy="256"
     inkscape:window-width="1920"
     inkscape:window-height="1008"
     inkscape:window-x="0"
     inkscape:window-y="0"
     inkscape:window-maximized="1"
     inkscape:current-layer="svg1" />
  <!--! Font Awesome Free 6.5.2 by @fontawesome - https://fontawesome.com License - https://fontawesome.com/license/free (Icons: CC BY 4.0, Fonts: SIL OFL 1.1, Code: MIT License) Copyright 2024 Fonticons, Inc.-->
  <path
     d="m503.5 204.6-.7-1.8-69.7-181.78c-1.4-3.57-3.9-6.59-7.2-8.64-2.4-1.55-5.1-2.515-8-2.81-2.9-.295-5.7.083-8.4 1.11-2.7 1.02-5.1 2.66-7.1 4.78-1.9 2.12-3.3 4.67-4.1 7.44l-47 144H160.8l-47.1-144c-.8-2.77-2.2-5.31-4.1-7.43-2-2.12-4.4-3.75-7.1-4.77a18.1 18.1 0 0 0-8.38-1.113 18.4 18.4 0 0 0-8.04 2.793 18.09 18.09 0 0 0-7.16 8.64L9.267 202.8l-.724 1.8a129.57 129.57 0 0 0-3.52 82c7.747 26.9 24.047 50.7 46.447 67.6l.27.2.59.4 105.97 79.5 52.6 39.7 32 24.2c3.7 1.9 8.3 4.3 13 4.3 4.7 0 9.3-2.4 13-4.3l32-24.2 52.6-39.7 106.7-79.9.3-.3c22.4-16.9 38.7-40.6 45.6-67.5 8.6-27 7.4-55.8-2.6-82z"
     id="path1"
     style="fill:#dd855a;fill-opacity:1;stroke:none" />
</svg>
